HIERARCHY
ROOT Hips
{
	OFFSET 0.000000 100.481300 0.000000
	CHANNELS 6 Xposition Yposition Zposition Xrotation Yrotation Zrotation
	JOINT Spine
	{
		OFFSET -0.279200 12.230698 -2.892100
		CHANNELS 3 Xrotation Yrotation Zrotation
		JOINT Spine1
		{
			OFFSET -0.325700 14.269203 -3.374200
			CHANNELS 3 Xrotation Yrotation Zrotation
			JOINT Spine2
			{
				OFFSET -0.372300 16.307602 -0.352600
				CHANNELS 3 Xrotation Yrotation Zrotation
				JOINT Neck
				{
					OFFSET -0.418800 17.814194 8.416900
					CHANNELS 3 Xrotation Yrotation Zrotation
					JOINT Head
					{
						OFFSET 0.000000 7.031097 3.806800
						CHANNELS 3 Xrotation Yrotation Zrotation
						JOINT HeadTop_End
						{
							OFFSET 0.000000 24.646606 12.978600
							CHANNELS 3 Xrotation Yrotation Zrotation
							End Site
							{
								OFFSET 0.000000 27.854965 0.000000
							}
						}
					}
				}
				JOINT LeftShoulder
				{
					OFFSET 16.952999 14.495407 -7.737500
					CHANNELS 3 Xrotation Yrotation Zrotation
					JOINT LeftArm
					{
						OFFSET 9.308998 -2.777710 0.208600
						CHANNELS 3 Xrotation Yrotation Zrotation
						JOINT LeftForeArm
						{
							OFFSET 29.972298 0.000000 0.000000
							CHANNELS 3 Xrotation Yrotation Zrotation
							JOINT LeftHand
							{
								OFFSET 26.026505 0.000000 0.000000
								CHANNELS 3 Xrotation Yrotation Zrotation
								JOINT LeftHandThumb1
								{
									OFFSET 12.240501 -7.147949 9.207150
									CHANNELS 3 Xrotation Yrotation Zrotation
									JOINT LeftHandThumb2
									{
										OFFSET 4.138618 -2.389435 2.389433
										CHANNELS 3 Xrotation Yrotation Zrotation
										JOINT LeftHandThumb3
										{
											OFFSET 2.726913 -1.574387 1.574386
											CHANNELS 3 Xrotation Yrotation Zrotation
											JOINT LeftHandThumb4
											{
												OFFSET 3.941010 -2.275345 2.275342
												CHANNELS 3 Xrotation Yrotation Zrotation
												End Site
												{
													OFFSET -0.005798 5.087799 0.009903
												}
											}
										}
									}
								}
								JOINT LeftHandIndex1
								{
									OFFSET 24.424698 -1.985611 5.953459
									CHANNELS 3 Xrotation Yrotation Zrotation
									JOINT LeftHandIndex2
									{
										OFFSET 6.426697 0.000000 0.000000
										CHANNELS 3 Xrotation Yrotation Zrotation
										JOINT LeftHandIndex3
										{
											OFFSET 5.337898 0.000000 0.000000
											CHANNELS 3 Xrotation Yrotation Zrotation
											JOINT LeftHandIndex4
											{
												OFFSET 4.409401 0.000000 0.000000
												CHANNELS 3 Xrotation Yrotation Zrotation
												End Site
												{
													OFFSET 0.000000 4.409363 0.014373
												}
											}
										}
									}
								}
								JOINT LeftHandMiddle1
								{
									OFFSET 23.810104 0.000000 0.000000
									CHANNELS 3 Xrotation Yrotation Zrotation
									JOINT LeftHandMiddle2
									{
										OFFSET 7.176498 0.000000 0.000000
										CHANNELS 3 Xrotation Yrotation Zrotation
										JOINT LeftHandMiddle3
										{
											OFFSET 6.774902 0.000000 0.000000
											CHANNELS 3 Xrotation Yrotation Zrotation
											JOINT LeftHandMiddle4
											{
												OFFSET 5.403328 0.000000 0.000000
												CHANNELS 3 Xrotation Yrotation Zrotation
												End Site
												{
													OFFSET -0.027702 5.403244 0.017414
												}
											}
										}
									}
								}
								JOINT LeftHandRing1
								{
									OFFSET 22.908401 -0.839279 -6.020567
									CHANNELS 3 Xrotation Yrotation Zrotation
									JOINT LeftHandRing2
									{
										OFFSET 6.337502 0.000000 0.000000
										CHANNELS 3 Xrotation Yrotation Zrotation
										JOINT LeftHandRing3
										{
											OFFSET 5.779297 0.000000 0.000000
											CHANNELS 3 Xrotation Yrotation Zrotation
											JOINT LeftHandRing4
											{
												OFFSET 4.965698 0.000000 0.000000
												CHANNELS 3 Xrotation Yrotation Zrotation
												End Site
												{
													OFFSET 0.000000 4.965668 0.016186
												}
											}
										}
									}
								}
								JOINT LeftHandPinky1
								{
									OFFSET 20.037003 -1.530319 -10.950146
									CHANNELS 3 Xrotation Yrotation Zrotation
									JOINT LeftHandPinky2
									{
										OFFSET 5.254700 0.000000 0.000000
										CHANNELS 3 Xrotation Yrotation Zrotation
										JOINT LeftHandPinky3
										{
											OFFSET 4.810204 0.000000 0.000000
											CHANNELS 3 Xrotation Yrotation Zrotation
											JOINT LeftHandPinky4
											{
												OFFSET 3.647202 0.000000 0.000000
												CHANNELS 3 Xrotation Yrotation Zrotation
												End Site
												{
													OFFSET 0.000000 3.647186 0.011889
												}
											}
										}
									}
								}
							}
						}
					}
				}
				JOINT RightShoulder
				{
					OFFSET -15.141001 14.495407 -7.737500
					CHANNELS 3 Xrotation Yrotation Zrotation
					JOINT RightArm
					{
						OFFSET -9.308998 -2.777710 0.208500
						CHANNELS 3 Xrotation Yrotation Zrotation
						JOINT RightForeArm
						{
							OFFSET -29.972300 0.000000 0.000000
							CHANNELS 3 Xrotation Yrotation Zrotation
							JOINT RightHand
							{
								OFFSET -26.026505 0.000000 0.000000
								CHANNELS 3 Xrotation Yrotation Zrotation
								JOINT RightHandThumb1
								{
									OFFSET -12.240601 -7.148026 9.207092
									CHANNELS 3 Xrotation Yrotation Zrotation
									JOINT RightHandThumb2
									{
										OFFSET -4.138618 -2.389435 2.389433
										CHANNELS 3 Xrotation Yrotation Zrotation
										JOINT RightHandThumb3
										{
											OFFSET -2.726974 -1.574417 1.574421
											CHANNELS 3 Xrotation Yrotation Zrotation
											JOINT RightHandThumb4
											{
												OFFSET -3.941010 -2.275345 2.275343
												CHANNELS 3 Xrotation Yrotation Zrotation
												End Site
												{
													OFFSET 0.005814 5.087799 0.009927
												}
											}
										}
									}
								}
								JOINT RightHandIndex1
								{
									OFFSET -24.424698 -1.985657 5.953444
									CHANNELS 3 Xrotation Yrotation Zrotation
									JOINT RightHandIndex2
									{
										OFFSET -6.426697 0.000000 0.000000
										CHANNELS 3 Xrotation Yrotation Zrotation
										JOINT RightHandIndex3
										{
											OFFSET -5.337898 0.000000 0.000000
											CHANNELS 3 Xrotation Yrotation Zrotation
											JOINT RightHandIndex4
											{
												OFFSET -4.409401 0.000000 0.000000
												CHANNELS 3 Xrotation Yrotation Zrotation
												End Site
												{
													OFFSET 0.000000 4.409363 0.014408
												}
											}
										}
									}
								}
								JOINT RightHandMiddle1
								{
									OFFSET -23.810097 0.000000 0.000000
									CHANNELS 3 Xrotation Yrotation Zrotation
									JOINT RightHandMiddle2
									{
										OFFSET -7.176498 0.000000 0.000000
										CHANNELS 3 Xrotation Yrotation Zrotation
										JOINT RightHandMiddle3
										{
											OFFSET -6.774902 0.000000 0.000000
											CHANNELS 3 Xrotation Yrotation Zrotation
											JOINT RightHandMiddle4
											{
												OFFSET -5.403328 0.000000 0.000000
												CHANNELS 3 Xrotation Yrotation Zrotation
												End Site
												{
													OFFSET 0.027702 5.403244 0.017457
												}
											}
										}
									}
								}
								JOINT RightHandRing1
								{
									OFFSET -22.908302 -0.839325 -6.020576
									CHANNELS 3 Xrotation Yrotation Zrotation
									JOINT RightHandRing2
									{
										OFFSET -6.337502 0.000000 0.000000
										CHANNELS 3 Xrotation Yrotation Zrotation
										JOINT RightHandRing3
										{
											OFFSET -5.779297 0.000000 0.000000
											CHANNELS 3 Xrotation Yrotation Zrotation
											JOINT RightHandRing4
											{
												OFFSET -4.965698 0.000000 0.000000
												CHANNELS 3 Xrotation Yrotation Zrotation
												End Site
												{
													OFFSET 0.000000 4.965668 0.016226
												}
											}
										}
									}
								}
								JOINT RightHandPinky1
								{
									OFFSET -20.037003 -1.530334 -10.950259
									CHANNELS 3 Xrotation Yrotation Zrotation
									JOINT RightHandPinky2
									{
										OFFSET -5.254700 0.000000 0.000000
										CHANNELS 3 Xrotation Yrotation Zrotation
										JOINT RightHandPinky3
										{
											OFFSET -4.810204 0.000000 0.000000
											CHANNELS 3 Xrotation Yrotation Zrotation
											JOINT RightHandPinky4
											{
												OFFSET -3.647202 0.000000 0.000000
												CHANNELS 3 Xrotation Yrotation Zrotation
												End Site
												{
													OFFSET 0.000000 3.647186 0.011917
												}
											}
										}
									}
								}
							}
						}
					}
				}
			}
		}
	}
	JOINT LeftUpLeg
	{
		OFFSET 15.427100 -6.655098 0.678600
		CHANNELS 3 Xrotation Yrotation Zrotation
		JOINT LeftLeg
		{
			OFFSET 4.081073 -39.591068 13.024000
			CHANNELS 3 Xrotation Yrotation Zrotation
			JOINT LeftFoot
			{
				OFFSET -4.081074 -37.707932 -15.979700
				CHANNELS 3 Xrotation Yrotation Zrotation
				JOINT LeftToeBase
				{
					OFFSET 5.346399 -15.068900 20.645000
					CHANNELS 3 Xrotation Yrotation Zrotation
					JOINT LeftToe_End
					{
						OFFSET 2.754700 0.931300 11.300900
						CHANNELS 3 Xrotation Yrotation Zrotation
						End Site
						{
							OFFSET 0.000000 11.669021 0.000000
						}
					}
				}
			}
		}
	}
	JOINT RightUpLeg
	{
		OFFSET -15.569500 -6.655098 0.678600
		CHANNELS 3 Xrotation Yrotation Zrotation
		JOINT RightLeg
		{
			OFFSET -4.081825 -39.591045 13.023800
			CHANNELS 3 Xrotation Yrotation Zrotation
			JOINT RightFoot
			{
				OFFSET 4.081824 -37.707954 -15.979600
				CHANNELS 3 Xrotation Yrotation Zrotation
				JOINT RightToeBase
				{
					OFFSET -5.346400 -15.068900 20.645000
					CHANNELS 3 Xrotation Yrotation Zrotation
					JOINT RightToe_End
					{
						OFFSET -2.754700 0.931300 11.300900
						CHANNELS 3 Xrotation Yrotation Zrotation
						End Site
						{
							OFFSET 0.000000 11.669021 0.000000
						}
					}
				}
			}
		}
	}
}
MOTION
Frames: 6
Frame Time: 0.033333
4.333260 85.739380 254.777237 3.395989 -7.847867 4.386163 2.822093 0.058674 -3.386431 5.655497 -0.569587 -0.563464 5.655494 -0.569591 -0.563464 0.990467 3.446108 -3.794251 -11.394107 2.229346 1.650119 -0.000001 -0.000000 -0.000000 -4.846584 -14.212650 -18.053114 15.085784 -15.850267 -55.266394 112.585259 -73.648311 123.519272 -1.222018 0.944387 16.474182 5.010111 -0.240072 16.811944 14.504260 35.343951 -4.139615 -5.675385 -19.526176 -1.458148 0.000006 -0.000000 -0.000001 7.014370 3.458489 -83.351804 5.988421 5.953588 -98.424016 2.658936 4.566554 -63.122272 -0.000001 0.000000 -0.000000 2.573886 10.962042 -75.655430 5.070000 6.093493 -89.908601 2.864967 6.118298 -65.611555 0.000002 -0.000001 0.000001 0.458937 20.183482 -81.928392 5.857271 5.007778 -91.731237 3.402611 5.755813 -68.442293 0.000000 0.000001 0.000000 -4.582621 26.051574 -87.389853 3.272639 5.105737 -74.074570 6.542851 3.281851 -90.216356 -0.000000 -0.000001 0.000000 -2.728642 11.461580 15.823399 21.605280 10.300857 64.618145 113.289903 63.814519 -127.096515 -5.400298 16.744701 -7.354233 5.007304 0.239309 -16.816737 13.457640 -36.887386 4.474320 -6.092487 19.956968 7.464231 -0.000001 0.000000 0.000000 5.593907 -0.867712 75.998108 4.955942 -6.003225 87.009076 1.213717 -3.658537 55.381950 -0.000000 0.000001 0.000000 1.894185 -10.216159 67.247290 4.536581 -6.054965 83.947369 -2.266363 -3.849520 63.107915 0.000001 -0.000000 -0.000001 -1.907437 -19.193320 72.537196 5.694353 -5.031666 89.877817 -2.852466 -3.572758 68.296912 0.000001 -0.000002 0.000002 -6.866952 -23.552828 75.354561 2.878950 -4.929964 69.285787 -0.014909 -2.869019 77.162901 0.000000 0.000001 0.000001 -1.615522 2.204957 -8.812693 32.705620 9.982147 -1.364295 -30.479248 -1.316479 0.797502 -9.400973 0.358108 -0.131644 0.000000 -0.000000 0.000000 -26.348189 -1.647426 -9.959344 63.584294 -13.237250 -6.352958 14.567229 1.668129 1.341927 -33.911582 -1.598221 17.445850 -0.000001 0.000000 -0.000000 
4.268151 90.990677 264.052185 4.469256 -9.420059 2.670572 2.465479 -0.489214 -3.342147 5.009095 -1.219854 0.756822 5.009089 -1.219850 0.756822 1.720584 5.113285 -5.698934 -11.185575 3.530108 1.506839 -0.000001 -0.000000 -0.000000 -4.726402 -14.338290 -17.368785 16.221790 -17.873027 -54.676907 121.846545 -72.040976 134.473079 -0.402764 -2.295542 15.148224 5.010110 -0.240071 16.811945 11.008548 37.331714 -2.133202 -5.686558 -19.492340 -1.870622 -0.000003 -0.000000 -0.000000 7.056951 3.507158 -85.689443 5.843168 5.972893 -96.809776 2.531728 4.493379 -61.513155 -0.000000 0.000001 0.000000 2.935493 11.190579 -77.234215 4.996135 6.091326 -89.086485 2.779032 6.085007 -64.790164 0.000000 -0.000002 -0.000001 0.927649 20.333174 -83.765180 5.795042 5.015526 -91.043020 3.327664 5.733883 -67.753605 0.000000 0.000000 0.000000 -4.148625 26.246863 -88.809261 3.209628 5.080322 -73.316282 6.505655 3.301297 -89.459632 0.000001 -0.000003 -0.000001 -2.162209 10.091637 13.984055 25.899049 9.858564 64.351966 112.550473 62.651672 -127.382290 -7.278474 10.807014 -4.501347 5.007306 0.239308 -16.816737 12.926930 -37.327069 4.285924 -6.152008 19.815190 9.110411 0.000001 0.000003 -0.000002 6.227559 -1.091281 73.558959 4.760899 -5.989418 84.855449 1.080003 -3.506879 53.241099 -0.000001 0.000001 0.000002 1.876875 -10.010159 64.024213 4.446263 -6.042775 82.933578 -2.330659 -3.718772 62.106309 0.000002 0.000001 0.000000 -2.620877 -18.800017 69.467853 5.662380 -5.034900 89.524840 -2.873991 -3.530463 67.996336 0.000001 -0.000001 0.000001 -7.491244 -22.495650 70.610496 2.820290 -4.900735 68.557634 -0.044442 -2.803122 76.438908 0.000002 -0.000000 0.000002 7.048993 3.776895 -6.607887 21.376880 7.264317 -2.864664 -20.800849 -1.018095 2.512874 -19.936701 0.664998 1.652093 -0.000000 -0.000000 -0.000000 -26.911548 -4.182697 -5.443270 51.377069 -10.813988 -6.300661 6.668615 0.482397 4.472869 -25.271929 3.081170 7.914161 -0.000000 -0.000001 0.000000 
4.200016 94.371078 272.210236 6.324259 -10.414339 0.239870 2.050324 -0.951004 -1.977456 4.205441 -1.623284 1.840945 4.205441 -1.623282 1.840945 1.172670 6.364494 -7.185724 -11.575949 4.201033 2.092146 0.000001 0.000000 -0.000000 -4.672519 -14.459878 -17.013554 17.900650 -19.818911 -53.519658 126.524801 -68.922073 140.843514 0.263421 -5.619658 13.741350 5.010114 -0.240071 16.811944 10.392584 37.668749 -1.767208 -5.694825 -19.466845 -2.180943 -0.000001 0.000000 0.000000 7.324358 3.734032 -85.659568 5.561276 5.998658 -93.690825 2.292157 4.342058 -58.405289 0.000001 -0.000000 -0.000000 3.026260 11.267136 -76.817983 4.891858 6.086521 -87.925128 2.658515 6.035940 -63.629913 0.000000 -0.000000 -0.000001 0.776067 20.289587 -83.148660 5.738540 5.021885 -90.419301 3.260261 5.713110 -67.129572 -0.000000 0.000003 0.000001 -4.290991 26.176722 -88.429810 3.159985 5.059575 -72.715669 6.475939 3.316614 -88.860181 -0.000000 0.000001 -0.000001 -1.639717 8.890909 12.042159 28.876646 7.826956 64.756703 112.381091 60.659047 -128.266609 -8.624756 3.922644 0.850560 5.007302 0.239311 -16.816740 13.035405 -37.236084 4.322963 -6.155604 19.800471 9.257916 0.000003 0.000001 -0.000001 6.364071 -1.182215 73.636768 4.709397 -5.984552 84.285354 1.045606 -3.465928 52.674456 -0.000001 -0.000003 -0.000000 1.898570 -10.006872 63.934245 4.423389 -6.039439 82.676523 -2.346591 -3.685392 61.852253 -0.000003 0.000000 0.000003 -2.629800 -18.794778 69.428846 5.658048 -5.035333 89.476188 -2.878971 -3.520533 67.926033 -0.000000 0.000000 -0.000001 -7.526110 -22.429704 70.327760 2.834038 -4.908013 68.732706 -0.037419 -2.818907 76.612921 0.000000 0.000001 -0.000001 10.524668 5.528859 -3.310209 17.534993 8.745984 -2.697894 -10.946846 -2.533373 0.169125 -26.189380 -0.675063 2.437003 0.000000 0.000000 -0.000000 -25.466435 -7.015064 1.046869 33.862930 -6.221224 -5.864453 2.992855 2.833165 4.253224 -18.343704 3.764079 -0.041638 0.000000 0.000002 -0.000000 
4.373552 95.146240 278.886902 8.040812 -10.689522 -1.687611 1.796347 -1.207013 -0.027850 3.651930 -1.911237 2.114148 3.651933 -1.911232 2.114148 -0.370698 6.932208 -7.869011 -12.383060 4.160275 3.100035 0.000000 0.000000 0.000000 -4.645508 -14.817037 -16.714482 18.675100 -21.123241 -52.054917 130.843858 -65.784585 146.824383 0.744785 -9.076959 10.800903 5.010111 -0.240073 16.811942 11.550932 37.028832 -2.442021 -5.700520 -19.448938 -2.398491 0.000001 0.000001 -0.000001 7.295426 3.712507 -84.967000 5.186179 6.009227 -89.555815 1.988015 4.121911 -54.287204 0.000000 0.000001 -0.000001 2.891564 11.182223 -76.245723 4.839922 6.083323 -87.346672 2.598838 6.010601 -63.052120 -0.000004 -0.000002 -0.000000 0.506520 20.210294 -82.064381 5.728829 5.022626 -90.311814 3.249484 5.708886 -67.022092 -0.000000 -0.000001 -0.000001 -4.550838 26.052389 -87.663395 3.157025 5.058293 -72.678288 6.473815 3.318959 -88.822908 0.000001 -0.000000 0.000001 -1.303447 7.909329 10.756113 30.425556 5.071073 65.624396 109.009737 55.136449 -125.292567 -8.893596 -1.410847 4.642382 5.007304 0.239311 -16.816739 12.738492 -37.487015 4.233456 -6.149878 19.816179 9.082285 0.000001 0.000000 -0.000000 6.454238 -1.270114 73.998946 4.758137 -5.989164 84.824720 1.078282 -3.504747 53.210548 -0.000000 -0.000003 -0.000001 2.006612 -10.033574 64.410583 4.438347 -6.041623 82.844867 -2.336150 -3.707174 62.018384 -0.000000 0.000002 -0.000001 -2.518068 -18.859763 69.915818 5.666774 -5.034498 89.571470 -2.872618 -3.533071 68.015297 0.000003 0.000000 -0.000000 -7.396044 -22.484257 70.598317 2.908820 -4.945506 69.666038 0.000863 -2.903020 77.541075 0.000001 0.000002 -0.000004 9.364473 5.760513 -1.111280 20.896971 9.875351 -0.275202 -1.403454 -2.982929 -4.303341 -38.008476 -0.890867 1.261461 -0.000000 -0.000000 0.000000 -26.673344 -8.970117 4.719037 24.723782 0.676173 -3.263604 -6.435403 2.029389 8.063890 11.075377 1.827352 -3.195454 -0.000001 -0.000000 -0.000000 
4.492372 94.434189 284.943970 8.357991 -9.874080 -2.205180 1.837589 -1.447846 1.191441 3.673652 -2.155028 1.637831 3.673652 -2.155021 1.637830 -1.895072 6.747897 -7.791416 -13.195197 3.598354 3.923440 0.000000 0.000000 0.000000 -4.628607 -15.352843 -16.414615 17.615008 -21.487212 -51.423234 134.092965 -64.194510 150.846176 0.849981 -13.840246 8.007863 5.010112 -0.240072 16.811940 9.420551 38.221838 -1.222030 -5.698581 -19.455012 -2.324626 0.000001 0.000001 0.000001 7.061520 3.515696 -86.936041 5.165476 6.009057 -89.327953 1.971628 4.109172 -54.060322 0.000002 -0.000001 -0.000001 3.036519 11.235307 -77.957211 4.889134 6.086357 -87.895013 2.655303 6.034592 -63.600140 0.000001 -0.000001 -0.000001 0.983850 20.358340 -83.927397 5.755924 5.019223 -90.610574 3.283113 5.718051 -67.321056 0.000001 -0.000001 -0.000001 -4.094386 26.259468 -88.982741 3.129875 5.046677 -72.348109 6.457276 3.327811 -88.493304 0.000000 -0.000003 0.000000 -1.123546 7.072114 10.147030 31.143436 2.368295 66.803819 106.785589 50.776221 -122.918393 -9.150272 -5.221816 4.502670 5.007302 0.239309 -16.816737 12.032597 -38.084442 4.025914 -6.136137 19.855872 8.647210 0.000002 0.000000 0.000001 6.375897 -1.312975 75.503534 4.913383 -6.000845 86.539542 1.184374 -3.626087 54.915080 0.000001 -0.000002 0.000002 2.201208 -10.121901 66.030540 4.486626 -6.048427 83.387068 -2.302106 -3.777248 62.554219 0.000001 -0.000003 -0.000003 -2.169705 -19.054438 71.419135 5.688086 -5.032360 89.805219 -2.852762 -3.571939 68.292063 0.000001 -0.000000 0.000001 -7.097221 -22.885835 72.456867 3.028739 -5.002308 71.145627 0.064288 -3.035068 79.012277 0.000002 -0.000002 -0.000003 9.015185 4.161148 0.634225 23.953115 10.024108 0.878588 11.365728 -3.364967 -9.931045 -55.375533 -3.393881 1.135082 0.000000 -0.000000 -0.000000 -28.787174 -10.988315 7.263067 23.208643 4.199562 -2.008087 -14.226131 3.936196 2.404445 18.702354 1.969685 -1.607482 0.000000 0.000000 -0.000000 
4.426482 92.037193 290.933105 6.425068 -8.412010 -2.128884 2.227799 -1.759314 1.531861 4.415131 -2.263123 1.094596 4.415132 -2.263125 1.094597 -2.483029 6.024108 -7.176388 -13.637274 2.928375 4.078232 -0.000000 -0.000000 -0.000000 -4.635900 -15.628788 -16.311976 15.440433 -20.987276 -52.766664 136.177484 -65.059157 152.472580 0.746679 -18.837354 6.948554 5.010109 -0.240073 16.811944 7.474586 39.269992 -0.076385 -5.694461 -19.468015 -2.166930 -0.000001 -0.000000 0.000000 6.860855 3.365702 -88.721808 5.331312 6.008348 -91.154735 2.103445 4.209644 -55.879273 0.000003 -0.000000 0.000000 3.172489 11.283544 -79.493143 4.981757 6.090799 -88.926611 2.762176 6.078294 -64.630979 0.000001 0.000000 0.000001 1.415226 20.469520 -85.695044 5.818094 5.011309 -91.297131 3.359275 5.739376 -68.008030 0.000003 -0.000000 0.000000 -3.656790 26.447121 -90.229948 3.135327 5.048986 -72.412518 6.460164 3.327786 -88.557637 0.000001 0.000000 -0.000001 -0.968158 6.474571 9.534583 31.569268 -0.112199 67.954249 106.096115 49.022727 -121.867158 -9.678741 -8.053167 2.854929 5.007305 0.239310 -16.816740 11.960271 -38.144588 4.000377 -6.061430 20.041961 6.536530 0.000001 0.000000 0.000005 6.291127 -1.380584 78.272889 5.195925 -6.010165 89.653705 1.386075 -3.838084 58.011802 0.000004 -0.000003 -0.000002 2.422699 -10.260466 68.617979 4.589709 -6.061384 84.542531 -2.227394 -3.925586 63.696439 -0.000002 -0.000001 0.000001 -1.515481 -19.389010 74.186899 5.731923 -5.027702 90.287314 -2.837452 -3.601562 68.503737 0.000002 0.000000 -0.000001 -6.463156 -23.885716 77.027711 3.168493 -5.063647 72.847376 0.141427 -3.184863 80.704470 0.000001 0.000000 -0.000002 10.512717 2.664933 1.533428 31.321899 10.060350 2.131887 16.952543 -2.971296 -15.446106 -51.801804 -2.156698 1.656197 0.000000 0.000001 0.000000 -30.257482 -12.526694 8.503957 27.077117 5.948884 -2.111228 -15.295777 5.456005 -4.563382 17.687144 3.040467 -1.556722 0.000000 0.000000 0.000000 
